<svg version="1.1" id="Capa_1" xmlns="http://www.w3.org/2000/svg" x="0" y="0" viewBox="0 0 526.49 526.49" xml:space="preserve"><path fill="#f8b64c" d="M192.648 261.84h141.205v124.459H192.648z"/><path fill="#40596b" d="M333.853 261.829l-.042 43.829-52.107 42.144-56.416-44.938 31.051-41.035z" opacity=".1"/><path d="M183.016 162.693c1.675 19.147-7.616 35.605-20.747 36.747-13.131 1.152-25.152-13.44-26.827-32.587-1.675-19.147 7.616-35.605 20.747-36.747 13.131-1.152 25.142 13.44 26.827 32.587m208.053 4.16c-1.675 19.147-13.675 33.739-26.816 32.587-13.131-1.141-22.432-17.6-20.757-36.747 1.675-19.147 13.685-33.739 26.837-32.587 13.131 1.142 22.422 17.6 20.736 36.747" fill="#f8b64c"/><path d="M373.747 112.592v36.267c-.107 7.68-.544 15.36-1.504 22.933-1.6 12.587-4.267 24.96-8 36.907-9.067 28.907-24.309 55.573-44.907 78.08l-10.549 11.52c-9.6 10.56-23.264 16.533-37.557 16.533h-16c-14.187 0-27.84-6.08-37.451-16.533l-10.443-11.52c-14.613-15.893-26.549-34.027-35.403-53.333-8.96-19.413-14.933-40.213-17.504-61.653-.96-7.573-1.493-15.253-1.493-22.933-.117-.853-.117-1.6-.117-2.453v-33.173a109.79 109.79 0 014.267-30.293c13.12-46.187 55.691-80.107 106.24-80.107 50.443 0 93.013 33.92 106.133 80.107 2.794 9.395 4.288 19.421 4.288 29.651" fill="#ffd15c"/><path fill="#f2f2f2" d="M159.411 372.901h207.701V526.49H159.411z"/><path fill="#ff7058" d="M280.211 409.37l13.856 117.12h-61.654l13.984-117.013-14.933-14.923 31.787-31.786 31.776 31.786z"/><path d="M518.184 526.448v-87.541c0-40.32-25.312-76.288-63.253-89.92l-121.088-43.488-.021.32-20.011 220.629h204.373zm-305.493 0L192.67 305.499 71.56 348.997c-37.941 13.621-63.253 49.6-63.253 89.909v87.541l204.384.001z" fill="#40596b"/><path d="M390.621 526.448l34.08-57.675a1.568 1.568 0 00-.245-1.963l-57.771-56.875a1.6 1.6 0 01.48-2.603l55.84-24.885c1.099-.48 1.28-1.931.384-2.699l-89.568-73.931-20.011 220.629h76.811zm-254.741 0h76.811l-20.011-220.63-89.568 73.931c-.896.768-.704 2.219.395 2.699l55.829 24.885a1.6 1.6 0 01.48 2.603l-57.771 56.875a1.554 1.554 0 00-.245 1.963l34.08 57.674z" fill="#334a5e"/><path d="M367.251 196.954c3.413-33.387-2.731-55.488-7.509-66.955-2.816-6.763-3.531-14.069-2.528-21.333 4.373-31.68-12.267-27.403-12.267-27.403-35.829 17.6-81.632 17.216-81.632 17.216s-45.803.384-81.611-17.216c0 0-16.661-4.277-12.277 27.403 1.003 7.264.277 14.571-2.528 21.333-4.789 11.467-10.933 33.568-7.52 66.955 0 0-69.888-204.363 103.947-196.747 173.823-7.615 103.925 196.747 103.925 196.747" fill="#40596b"/><path d="M263.251 362.778l70.602-57.28-10.645 117.472zm0 0l-70.582-57.28 10.646 117.472z" fill="#cdd6e0"/></svg>