<svg viewBox="0 0 1000 1000" xmlns="http://www.w3.org/2000/svg"><path d="M967.85 786.32a65.94 65.94 0 0115.43 68.83 65 65 0 01-2.94 6.92 66 66 0 01-41.94 34.42 63 63 0 01-8 1.63 66.07 66.07 0 01-9.06.62H96.82a65.57 65.57 0 01-42-15.16q-2.37-2-4.54-4.13c-.81-.81-1.61-1.64-2.38-2.5-1-1.09-1.93-2.21-2.83-3.37a64.78 64.78 0 01-7.27-11.51c-.27-.54-.53-1.08-.78-1.63q-1.2-2.6-2.16-5.29A65.74 65.74 0 0145 792.21c.9-1.16 1.85-2.28 2.83-3.37A65.67 65.67 0 0196.82 767h85.86q1.62 0 3.21-.12a42.58 42.58 0 008.05-1.36 41.77 41.77 0 006.7-2.42 43.57 43.57 0 0012.62-8.77 43.07 43.07 0 0012.67-30.58 41.74 41.74 0 00-.28-4.9A43.29 43.29 0 00193.94 682a42.85 42.85 0 00-8.05-1.36q-1.59-.12-3.21-.12H169.2a100 100 0 01-22.31-2.5h-.07c-.17 0-.34-.07-.51-.12-.56-.12-1.11-.26-1.66-.4l-.82-.21c-.72-.19-1.44-.38-2.15-.59s-1.2-.35-1.79-.54a97.43 97.43 0 01-13.12-5c-.94-.44-1.88-.89-2.8-1.37-1.52-.77-3-1.57-4.48-2.42q-4.15-2.37-8-5.14c-2.16-1.53-4.25-3.15-6.28-4.84q-3.48-2.9-6.68-6.1A99.62 99.62 0 0169.33 586q-.06-1.11-.09-2.22c0-1.09-.06-2.19-.06-3.28v-1.43a100.82 100.82 0 01.88-12 99.82 99.82 0 0141.36-68.22q3.68-2.62 7.59-4.89c.15-.09.3-.18.46-.26a98.3 98.3 0 0114-6.66c2.1-.81 4.23-1.54 6.39-2.21s4.59-1.31 6.93-1.84a100 100 0 0122.38-2.52h73.66a44.2 44.2 0 0025.52-8.13 44.66 44.66 0 005.66-4.79A44 44 0 00286.88 439c.05-.85.08-1.71.08-2.58A44.13 44.13 0 00270.43 402c-.67-.54-1.35-1-2.05-1.54a42.68 42.68 0 00-8.05-4.53c-.69-.31-1.39-.59-2.1-.85a43.74 43.74 0 00-15.37-2.76H108.28a104.49 104.49 0 01-36.43-6.52 101.51 101.51 0 01-12-5.35q-2.58-1.35-5.07-2.83-3.55-2.11-6.92-4.5c-1-.68-1.9-1.37-2.83-2.08a100.32 100.32 0 01-8-6.79c-.9-.83-1.78-1.68-2.65-2.55a104.34 104.34 0 01-28.29-51.76q-.18-.79-.33-1.59a92.61 92.61 0 01-.93-5.33 105.67 105.67 0 01-1.11-15.3v-1.2a104.1 104.1 0 0123.8-65.23c.94-1.14 1.91-2.27 2.9-3.37 1.26-1.42 2.57-2.8 3.91-4.14.87-.87 1.75-1.72 2.65-2.55l.26-.24c.75-.7 1.5-1.38 2.27-2.05q2.68-2.35 5.52-4.5c.93-.71 1.87-1.4 2.83-2.08s1.74-1.21 2.62-1.8c1.41-.94 2.84-1.85 4.3-2.71l.71-.42c1.43-.84 2.89-1.65 4.36-2.41a99.85 99.85 0 0112-5.34 104 104 0 0136.43-6.53 30 30 0 003.16-.17 28.55 28.55 0 008-2.07A29.17 29.17 0 00135 165.68a28.83 28.83 0 002.26-8.51 25.28 25.28 0 00.16-2.77v-21.2a49.82 49.82 0 012.07-14.2c.13-.43.26-.86.4-1.28a49.89 49.89 0 0143-34.24c1-.09 2-.15 3-.18h294.49c1.11 0 2.2 0 3.29.11a48.51 48.51 0 018.05 1.18 49.86 49.86 0 0123.19 12.57c.27.25.53.51.79.77a49.77 49.77 0 0114.59 33.65v3.09a49.39 49.39 0 00.7 7c.08.49.18 1 .27 1.47.19.93.41 1.86.64 2.77a49.61 49.61 0 003.09 8.51c.44.94.91 1.87 1.4 2.77.23.43.47.85.72 1.27a49.27 49.27 0 005.16 7.24 48.6 48.6 0 004.6 4.7c.73.66 1.48 1.29 2.24 1.91a49.82 49.82 0 009 5.68c.63.32 1.27.62 1.92.91a49.71 49.71 0 0020.24 4.27h146.14c2.87 0 5.7.15 8.5.43a82.59 82.59 0 0129 8.51A83.61 83.61 0 01781.46 204c.48.43.95.85 1.42 1.29s.79.73 1.17 1.11c.87.83 1.71 1.67 2.51 2.54.32.31.61.63.9.95a.31.31 0 01.1.1c.31.33.61.66.89 1s.72.8 1.06 1.21c.5.57 1 1.15 1.46 1.74.36.43.71.87 1 1.32s.67.86 1 1.3.68.9 1 1.36q.22.29.42.57c.65.92 1.28 1.85 1.89 2.8.4.63.8 1.26 1.19 1.9.68 1.12 1.33 2.26 2 3.41q1.35 2.51 2.54 5.1 1.07 2.31 2 4.7a79.49 79.49 0 012.75 8.5c.42 1.55.79 3.12 1.11 4.7a79.66 79.66 0 011.27 8.51 81.31 81.31 0 01.4 8.15v68.31A54.46 54.46 0 00864 389.09h83.13a49 49 0 0123.47 6 49.71 49.71 0 019.7 6.92c.55.5 1.09 1 1.61 1.54a50.65 50.65 0 013.47 3.85 49.21 49.21 0 010 61.87 50.65 50.65 0 01-3.47 3.85 49 49 0 01-28.37 14 48.49 48.49 0 01-6.41.42 31.14 31.14 0 00-8.69 1.24 30.35 30.35 0 00-8 3.69c-.77.49-1.51 1-2.23 1.57a30.85 30.85 0 00-11.91 24.38v98.73a63.12 63.12 0 01-14.4 40.24 60.91 60.91 0 01-4.18 4.62 62.63 62.63 0 01-9.47 7.78c-.69.48-1.39.93-2.1 1.37-1 .62-2 1.21-3.07 1.77l-1.46.77a3.37 3.37 0 01-.38.19c-.49.25-1 .49-1.48.72a.48.48 0 01-.18.08c-.55.26-1.1.51-1.65.74s-1.18.5-1.77.73a57.45 57.45 0 01-5.63 1.93 63 63 0 01-6.48 1.52 64.56 64.56 0 01-8.05.9c-1 0-2.09.08-3.14.08a43.26 43.26 0 00-43 38.35 41.74 41.74 0 00-.28 4.9A43.24 43.24 0 00852.77 767h68.52a64.52 64.52 0 019.06.63 63 63 0 018 1.62c.89.24 1.77.5 2.65.77a65.78 65.78 0 0126.85 16.3z" fill="#f3f4fe"/><path d="M45 204.44V371a100.32 100.32 0 01-8-6.79v-153l.26-.24c.75-.7 1.5-1.38 2.27-2.05q2.68-2.33 5.47-4.48zm-8 600.91a65.47 65.47 0 018-13.14v81.37a64.78 64.78 0 01-7.27-11.51c-.27-.54-.53-1.08-.78-1.63zm82.49-624.44v211.37h-8V183a28.55 28.55 0 008-2.09zM119 494c.15-.09.3-.18.46-.26v173.57q-4.15-2.37-8-5.14v-163.3q3.66-2.62 7.54-4.87zm-7.56 273.03h8.05v131.71h-8.05zm82.5-683.78v309h-8.05v-309h1.49zm-8.05 397.24h8.05V682a42.85 42.85 0 00-8.05-1.36zm0 286.42a42.58 42.58 0 008.05-1.36v133.19h-8.05zm82.49-683.66v317.17a42.68 42.68 0 00-8.05-4.53V83.25zm-8.05 393.63a43.77 43.77 0 008.05-4.52v426.38h-8.05zm74.45-393.63h8.05v815.49h-8.05zm74.45 0h8.05v815.49h-8.05zm82.49 1.29v814.2h-8.05V83.36a48.51 48.51 0 018.05 1.18zm74.45 96.59v717.61h-8V178c.63.32 1.27.62 1.92.91a49.26 49.26 0 006.08 2.22zm66.4 2.02h8.05v715.59h-8.05zm74.44 0h8.05v715.59h-8.05zm82.5 29.05v686.54h-8V204c.48.43.95.85 1.42 1.29s.79.73 1.17 1.11c.87.83 1.71 1.67 2.51 2.54.32.31.61.63.9.95a.31.31 0 01.1.1c.31.33.61.66.89 1s.67.8 1.01 1.21zM864 389.09v290.46a64.56 64.56 0 01-8.05.9v-292a54.77 54.77 0 008.05.64zm-8.09 377.94h8.05v131.71h-8.05zm82.49-377.94v99.63a30.35 30.35 0 00-8 3.69V389.09zm0 380.19v127.21a63 63 0 01-8 1.63V767.66a63 63 0 018 1.62z" fill="#eff1fd"/><rect fill="#7986bf" height="17.61" rx="8.8" transform="rotate(180 115.465 907.945)" width="74.06" x="78.43" y="899.14"/><rect fill="#7986bf" height="17.61" rx="8.8" transform="rotate(180 564.635 907.945)" width="809.94" x="159.67" y="899.14"/><path d="M212.26 139.18h46.1a4.61 4.61 0 014.61 4.61v110.46h-50.71V139.18z" fill="#6675ad"/><path d="M209 139.18h46.1v115.07h-50.75V143.79a4.61 4.61 0 014.61-4.61z" fill="#7986bf"/><circle cx="229.01" cy="174.71" fill="#6675ad" r="12.18"/><circle cx="229.01" cy="174.71" fill="#f3f4fe" r="5.53"/><circle cx="229.01" cy="231.28" fill="#6675ad" r="19.8"/><circle cx="229.01" cy="231.28" fill="#f3f4fe" r="8.98"/><path d="M311.64 139.18h46.1a4.61 4.61 0 014.61 4.61v110.46h-50.71V139.18z" fill="#6675ad"/><path d="M308.34 139.18h46.1v115.07h-50.71V143.79a4.61 4.61 0 014.61-4.61z" fill="#7986bf"/><circle cx="328.39" cy="174.71" fill="#6675ad" r="12.18"/><circle cx="328.39" cy="174.71" fill="#f3f4fe" r="5.53"/><circle cx="328.39" cy="231.28" fill="#6675ad" r="19.8"/><circle cx="328.39" cy="231.28" fill="#f3f4fe" r="8.98"/><path d="M133.15 277.31h299.53l-19.72-23.06H152.88zm243.43 0v30.96l-21.02 14.79v-45.75zm-161.2 0v45.75l-21.02-14.79v-30.96z" fill="#d2d6fa"/><path d="M194.36 277.31h21.02v9.57h-21.02zm161.2 0h21.02v9.57h-21.02z" fill="#969ecc"/><path d="M649.96 272.65h114.11v128.14H649.96z" fill="#d2d6fa"/><path d="M659.95 283.86h94.14v105.71h-94.14z" fill="#f3f4fe"/><path d="M687.86 318.39l25.25 46.59-44.98 2.99zm55.15-22.29l-17.6 31.87-18.4-24.92zm-2.76 47.08l-3.69 22-15.7-10.66z" fill="#d2d6fa"/><circle cx="526.28" cy="262.47" fill="#332d52" r="26.68"/><rect fill="#faeede" height="166.15" rx="31.94" transform="rotate(52.48 469.532 419.901)" width="63.88" x="437.61" y="336.85"/><circle cx="429.07" cy="448.73" fill="#f2e6d7" r="34.28"/><g fill="#ef948c"><rect height="166.15" rx="26.37" transform="rotate(-27.79 399.248 396.987)" width="52.75" x="372.92" y="313.94"/><rect height="75.11" rx="26.13" transform="rotate(113.46 360.44 339.097)" width="52.25" x="334.32" y="301.53"/><rect height="71.81" rx="9.45" transform="rotate(113.46 348.658 315.803)" width="18.9" x="339.21" y="279.89"/></g><rect fill="#ea8681" height="48.33" rx="9.45" transform="rotate(146.41 372.309 315.812)" width="18.9" x="362.86" y="291.63"/><circle cx="374.79" cy="334.29" fill="#ea8681" r="18.62"/><rect fill="#f2e6d7" height="166.15" rx="31.94" transform="rotate(52.48 469.532 419.901)" width="63.88" x="437.61" y="336.85"/><circle cx="429.07" cy="448.73" fill="#faeede" r="34.28"/><rect fill="#ef948c" height="166.15" rx="26.37" transform="rotate(-27.79 399.248 396.987)" width="52.75" x="372.92" y="313.94"/><rect fill="#ef948c" height="75.11" rx="26.13" transform="rotate(113.46 360.44 339.097)" width="52.25" x="334.32" y="301.53"/><path d="M326 324.13a26.54 26.54 0 013.62-6 26.07 26.07 0 0014.61 31.53l2.55 1.1 9.93 4.31 7.24 13.73 43.12 81.83a26.39 26.39 0 0043.93 4.22 26.38 26.38 0 01-48.57 4.63l-50.35-95.56-12.49-5.42A26.09 26.09 0 01326 324.13z" fill="#ea8681"/><g fill="#ef948c"><rect height="71.81" rx="9.45" transform="rotate(113.46 348.658 315.803)" width="18.9" x="339.21" y="279.89"/><rect height="48.33" rx="9.45" transform="rotate(146.41 372.309 315.812)" width="18.9" x="362.86" y="291.63"/><circle cx="374.79" cy="334.29" r="18.62"/></g><circle cx="528.07" cy="397.31" fill="#f2e6d7" r="50.06"/><rect fill="#faeede" height="150.99" rx="52.4" transform="rotate(-91.3 586.081 491.254)" width="264.34" x="453.91" y="415.76"/><path d="M487.592 395.102a55.911 55.911 0 0154.782-57.018l84.13-1.682a55.911 55.911 0 0157.018 54.782 92.248 92.248 0 01-90.385 94.074l-11.48.23a92.248 92.248 0 01-94.065-90.386z" fill="#faeede"/><path d="M591.57 484.27h.09A92.23 92.23 0 00681.77 390a55.9 55.9 0 00-57.15-54.62l-84.11 1.91a55.58 55.58 0 00-11.41 1.44l80.74-1.84h1.3A55.9 55.9 0 01667 391.48a92.25 92.25 0 01-75.43 92.79z" fill="#fff7ee"/><path d="M554.35 296.43l1.08 47.64a27.26 27.26 0 0027.29 26.68h.62A27.29 27.29 0 00610 342.82l-.36-16.32-.72-31.31a27.29 27.29 0 00-27.29-26.68H581a27.31 27.31 0 00-26.65 27.92z" fill="#ef948c"/><rect fill="#332d52" height="282.36" rx="40.76" transform="rotate(-91.3 522.443 582.036)" width="85.71" x="479.58" y="440.86"/><path d="M578.13 582.9v255.89h85.72V582.9a42.86 42.86 0 00-85.72 0z" fill="#666da2"/><path d="M578.13 582.9v255.89h22.29V621.84a42.87 42.87 0 0163.43-37.6v-1.34a42.86 42.86 0 00-85.72 0z" fill="#555a8b"/><path d="M578.13 801.93v36.86h85.72v-23.4z" fill="#141334"/><path d="M294.71 810.08l76.41 30.63 8.63-22.37 84.15-218a42.85 42.85 0 10-80-30.86l-78.85 204.38-10.31 26.67z" fill="#332d52"/><path d="M346.365 875.195l-59.976-23.155 12.685-32.856 59.976 23.154z" fill="#ea8681"/><path d="M653.14 878.39h-64.29v-32.92h64.29z" fill="#ef948c"/><path d="M554.35 296.43l1.08 47.64a27.11 27.11 0 001.18 7.37h2a64.45 64.45 0 0051-25l-.72-31.31a27.29 27.29 0 00-27.29-26.68h-.6a27.31 27.31 0 00-26.65 27.98z" fill="#ea8681"/><path d="M507 274.11a64.56 64.56 0 0061 64.46c1.15.06 2.3.09 3.47.09a64.55 64.55 0 100-129.09c-1.17 0-2.32 0-3.47.09a64.55 64.55 0 00-61 64.45z" fill="#ef948c"/><path d="M544.91 291.53a14.38 14.38 0 004.24 10.18c.33.33.68.64 1 .93a14.34 14.34 0 009.17 3.27h.59a14.43 14.43 0 0014.32-13.26v-1.2a2.79 2.79 0 00-.82-2 2.82 2.82 0 00-2-.81l-23.82.06a2.79 2.79 0 00-2.68 2.83z" fill="#962f4a"/><path d="M559.64 303.69a11.61 11.61 0 00.22 2.22h.08a14.41 14.41 0 0014.32-13.26 11.18 11.18 0 00-3.19-.45 11.46 11.46 0 00-11.43 11.49z" fill="#e1617f"/><path d="M548.22 288.73c.12 2.83 4.49 5.08 9.85 5.07s9.71-2.29 9.81-5.12z" fill="#fff"/><path d="M507 274.11a64.56 64.56 0 0061 64.46c1.78-.1 3.55-.26 5.3-.51a64.55 64.55 0 010-127.9c-1.75-.24-3.52-.41-5.3-.5a64.55 64.55 0 00-61 64.45z" fill="#ea8681"/><path d="M624.8 388.92v.67c.63 21.32 14.85 38.22 32.21 38.48h1.12c18.06-.47 32.4-18.78 32-40.88-.2-12.24-2.8-22.14-10-29.29a40.38 40.38 0 00-15-8.75 27 27 0 00-14-.36c-15.24 3.68-26.65 20.39-26.33 40.13z" fill="#faeede"/><path d="M623.51 388.09v.68c.55 15.39 8.13 28.55 18.89 35a45.5 45.5 0 01-9-26v-.68c-.43-20.06 11.24-37 27-40.64a27.44 27.44 0 015.82-.74 28.51 28.51 0 018.67 1.17 30.07 30.07 0 017 3.1 33.39 33.39 0 00-16.89-12.1 28.14 28.14 0 00-14.49-.43c-15.77 3.67-27.44 20.55-27 40.64z" fill="#f2e6d7"/><rect fill="#faeede" height="166.15" rx="31.94" transform="rotate(-24.93 687.405 437.142)" width="63.88" x="655.5" y="354.09"/><circle cx="706.72" cy="482.95" fill="#f2e6d7" r="34.28"/><rect fill="#faeede" height="166.15" rx="31.94" transform="rotate(-24.93 687.405 437.142)" width="63.88" x="655.5" y="354.09"/><path d="M635.71 380.36a31.94 31.94 0 0155.95 3.64l43.1 92.74a31.89 31.89 0 011.24 23.88 32.14 32.14 0 005-17.11 31.69 31.69 0 00-3-13.43l-43.1-92.74a31.93 31.93 0 00-59.15 3z" fill="#fff7ee"/><circle cx="706.72" cy="482.95" fill="#f2e6d7" r="34.28"/><rect fill="#332d52" height="61.84" rx="30.92" transform="rotate(180 569.705 228.395)" width="158.16" x="490.62" y="197.48"/><circle cx="630.74" cy="262.47" fill="#332d52" r="26.68"/><circle cx="635.51" cy="267.24" fill="#49466b" r="21.91"/><circle cx="636.03" cy="274.12" fill="#ef948c" r="21.39"/><path d="M634.35 280.78v-13.34a2.11 2.11 0 012.77-2 9.12 9.12 0 010 17.37 2.12 2.12 0 01-2.77-2.03z" fill="#ea8681"/><circle cx="526.28" cy="218.99" fill="#332d52" r="40.87"/><path d="M489.13 219a34.21 34.21 0 0038.26 34 34.2 34.2 0 010-67.92 34.21 34.21 0 00-38.26 34z" fill="#49466b"/><g fill="#332d52"><circle cx="558.64" cy="194.27" r="28.12"/><path d="M527.39 269.06a7.59 7.59 0 0015.17 0 7.25 7.25 0 00-.21-1.76 7.58 7.58 0 01-14.75 0 7.25 7.25 0 00-.21 1.76zm41.67 0a7.59 7.59 0 0015.18 0 7.25 7.25 0 00-.21-1.76 7.59 7.59 0 01-14.76 0 7.25 7.25 0 00-.21 1.76zm9.08 625.68h81.68a40.84 40.84 0 00-81.68 0z"/></g><path d="M578.14 894.74H597a42.5 42.5 0 0128.92-40.25 40.91 40.91 0 00-47.78 40.25z" fill="#49466b"/><path d="M566.83 887.35a12.47 12.47 0 00.24 2.38 11 11 0 00.29 1.13 10 10 0 00.4 1.08 11.47 11.47 0 001.76 2.91c.24.29.49.56.76.83a9.8 9.8 0 00.84.75 11.75 11.75 0 007.49 2.69h87.16a8.87 8.87 0 00.44-17.73L600.87 877l-21.69-1.44a11.67 11.67 0 00-5.66 1.14 12.85 12.85 0 00-1.48.85 14.85 14.85 0 00-1.33 1 11.34 11.34 0 00-1.17 1.23c-.24.29-.47.59-.68.9a11.54 11.54 0 00-1.64 3.66 10.46 10.46 0 00-.24 1.14 11.92 11.92 0 00-.15 1.87z" fill="#332d52"/><path d="M566.83 887.35a12.47 12.47 0 00.24 2.38 8.92 8.92 0 00.29 1.13 8.22 8.22 0 00.4 1.08 11.47 11.47 0 001.76 2.91c.24.29.49.56.76.83a9.8 9.8 0 00.84.75 11.75 11.75 0 007.49 2.69h27.95a11.78 11.78 0 01-5.69-22.1l-21.69-1.44a11.67 11.67 0 00-5.66 1.14 11.94 11.94 0 00-2.81 1.89 11.34 11.34 0 00-1.17 1.23 9.65 9.65 0 00-.68.9 11.54 11.54 0 00-1.64 3.66 10.46 10.46 0 00-.24 1.14 11.92 11.92 0 00-.15 1.81zm-217.103-1.855L284.1 857.908l10.4-24.743 54.962 23.104a11.57 11.57 0 016.183 15.15l-5.918 14.076z" fill="#49466b"/><path d="M234.51 845.87l75.3 31.65a40.84 40.84 0 10-75.3-31.65z" fill="#332d52"/><path d="M234.51 845.87l21.16 8.89A40.84 40.84 0 01297.93 830a40.85 40.85 0 00-63.42 15.87z" fill="#49466b"/><path d="M354.71 881.91l-108.17-51.77a11.78 11.78 0 00-15.94 6.06 11.78 11.78 0 006.29 15.43l110.55 46.47a8.88 8.88 0 0011.62-4.74 8.88 8.88 0 00-4.35-11.45z" fill="#332d52"/><path d="M230.6 836.21a11.78 11.78 0 006.29 15.42l25.76 10.83a11.78 11.78 0 014.12-22.63l-20.22-9.69a11.78 11.78 0 00-15.95 6.07z" fill="#49466b"/><path d="M706.73 531.19l6.75 19.24 11.87 33.89 110.34 314.85h24.61l-84.58-314.85-9.1-33.89-5.17-19.24z" fill="#441242"/><path d="M713.48 550.43l11.87 33.89h50.37l-9.1-33.89z" fill="#2f073a"/><path d="M354.26 531.19l-6.75 19.24-11.87 33.89L225.3 899.17h-24.61l84.58-314.85 9.1-33.89 5.17-19.24z" fill="#441242"/><path d="M347.51 550.43l-11.87 33.89h-50.37l9.1-33.89z" fill="#2f073a"/><path d="M830.51 565.08H244.34a14.66 14.66 0 01-14.66-14.66V531.2h615.5v19.21a14.66 14.66 0 01-14.67 14.67z" fill="#441242"/><rect fill="#d8ba9f" height="26.88" rx="13.44" transform="rotate(180 537.425 526.8)" width="763.33" x="155.76" y="513.36"/><path d="M155.76 526.8a13.45 13.45 0 0013.44 13.44h736.45a13.44 13.44 0 0013.44-13.44 13.27 13.27 0 00-.83-4.65 13.43 13.43 0 01-12.61 8.78H169.2a13.38 13.38 0 01-9.5-3.94 13.09 13.09 0 01-3.1-4.84 13.27 13.27 0 00-.84 4.65z" fill="#c89f87"/><circle cx="822.88" cy="552.31" fill="#d8ba9f" r="4.97"/><circle cx="821.8" cy="552.64" fill="#2f073a" r="6.06"/><circle cx="822.88" cy="552.31" fill="#d8ba9f" r="4.97"/><path d="M817.91 552.31a5 5 0 005 5h.52a5 5 0 010-9.89 4.53 4.53 0 00-.52 0 5 5 0 00-5 4.89z" fill="#c89f87"/><path d="M822.88 555a2.54 2.54 0 00.78.12 2.84 2.84 0 100-5.68 2.54 2.54 0 00-.78.12 2.82 2.82 0 010 5.44z" fill="#f5eae4"/><circle cx="795.08" cy="552.31" fill="#d8ba9f" r="4.97"/><circle cx="794" cy="552.64" fill="#2f073a" r="6.06"/><circle cx="795.08" cy="552.31" fill="#d8ba9f" r="4.97"/><path d="M790.12 552.31a5 5 0 005 5h.52a5 5 0 010-9.89 4.41 4.41 0 00-.52 0 5 5 0 00-5 4.89z" fill="#c89f87"/><path d="M795.08 555a2.54 2.54 0 00.78.12 2.84 2.84 0 100-5.68 2.54 2.54 0 00-.78.12 2.82 2.82 0 010 5.44z" fill="#f5eae4"/><circle cx="254.65" cy="552.31" fill="#d8ba9f" r="4.97"/><circle cx="255.73" cy="552.64" fill="#2f073a" r="6.06"/><circle cx="254.65" cy="552.31" fill="#d8ba9f" r="4.97"/><path d="M259.62 552.31a5 5 0 01-5 5h-.52a5 5 0 000-9.89 4.53 4.53 0 01.52 0 5 5 0 015 4.89z" fill="#c89f87"/><path d="M254.65 555a2.54 2.54 0 01-.78.12 2.84 2.84 0 110-5.68 2.54 2.54 0 01.78.12 2.83 2.83 0 000 5.44z" fill="#f5eae4"/><circle cx="282.45" cy="552.31" fill="#d8ba9f" r="4.97"/><circle cx="283.53" cy="552.64" fill="#2f073a" r="6.06"/><circle cx="282.45" cy="552.31" fill="#d8ba9f" r="4.97"/><path d="M287.41 552.31a5 5 0 01-5 5h-.52a5 5 0 000-9.89 4.53 4.53 0 01.52 0 5 5 0 015 4.89z" fill="#c89f87"/><path d="M282.45 555a2.54 2.54 0 01-.78.12 2.84 2.84 0 110-5.68 2.54 2.54 0 01.78.12 2.82 2.82 0 000 5.44z" fill="#f5eae4"/><rect fill="#ea8681" height="48.33" rx="9.45" transform="rotate(84.77 569.31 473.194)" width="18.9" x="559.86" y="449.06"/><circle cx="586.77" cy="479.83" fill="#ea8681" r="18.62"/><g fill="#ef948c"><rect height="166.15" rx="26.37" transform="rotate(-89.43 653.648 488.04)" width="52.75" x="627.24" y="404.97"/><rect height="75.11" rx="26.13" transform="rotate(51.82 584.141 494.67)" width="52.25" x="558.05" y="457.18"/><rect height="71.81" rx="9.45" transform="rotate(51.82 558.054 493.972)" width="18.9" x="548.63" y="458.13"/><rect height="48.33" rx="9.45" transform="rotate(84.77 569.31 473.194)" width="18.9" x="559.86" y="449.06"/><circle cx="586.77" cy="479.83" r="18.62"/><rect height="166.15" rx="26.37" transform="rotate(-89.43 653.648 488.04)" width="52.75" x="627.24" y="404.97"/><rect height="75.11" rx="26.13" transform="rotate(51.82 584.141 494.67)" width="52.25" x="558.05" y="457.18"/></g><path d="M552.05 511.34a26.13 26.13 0 0036.69 4.39l3-2.37 7.68-6 10.82.1 97.18 1a26.38 26.38 0 0026.64-26.11V482a26 26 0 00-.78-6.34 26.15 26.15 0 013.4 12.94v.27A26.37 26.37 0 01710.07 515l-108-1.06-10.7 8.41a26.14 26.14 0 01-41.52-14.28 26.27 26.27 0 002.2 3.27z" fill="#f3a6a0"/><rect fill="#ef948c" height="71.81" rx="9.45" transform="rotate(51.82 558.054 493.972)" width="18.9" x="548.63" y="458.13"/><rect fill="#f3a6a0" height="31.86" rx="8.25" transform="rotate(51.82 584.907 498.394)" width="16.5" x="576.68" y="482.52"/><g fill="none" stroke="#fff" stroke-miterlimit="10" stroke-width="2.85"><circle cx="522.31" cy="269.69" r="27.59"/><circle cx="587.41" cy="269.69" r="27.59"/><path d="M549.88 270.77h9.96"/></g><path d="M294.71 810.08l76.41 30.63 8.63-22.37-74.7-44.48-10.31 26.67z" fill="#141334"/><g fill="#abb2d8"><path d="M406.29 505.03h-15.64v-3a5.14 5.14 0 015.14-5.14h5.37a5.14 5.14 0 015.14 5.14v3h-.01z"/><path d="M421.93 505.03h-15.64v-3a5.14 5.14 0 015.13-5.11h5.37a5.14 5.14 0 015.14 5.14v2.97zm15.65 0h-15.64v-3a5.14 5.14 0 015.14-5.14h5.37a5.14 5.14 0 015.14 5.14v3h-.01z"/><path d="M453.22 505.03h-15.64v-3a5.14 5.14 0 015.14-5.14h5.37a5.14 5.14 0 015.14 5.14v3h-.01z"/><path d="M468.86 505.03h-15.64v-3a5.14 5.14 0 015.14-5.14h5.37a5.14 5.14 0 015.14 5.14v3h-.01zm15.65 0h-15.64v-3a5.14 5.14 0 015.14-5.14h5.36a5.14 5.14 0 015.14 5.14v3z"/><path d="M500.14 505.03H484.5v-3a5.14 5.14 0 015.15-5.11h5.37a5.14 5.14 0 015.14 5.14v3z"/></g><rect fill="#5d6295" height="12.75" rx="6.37" transform="rotate(180 431.665 506.99)" width="178.54" x="342.39" y="500.62"/><path d="M391.58 513.36h-149a13.62 13.62 0 01-13.21-10.3l-29-115.36a13.63 13.63 0 0113.22-16.95h131.48a13.62 13.62 0 0113.21 10.3z" fill="#666da2"/><path d="M200.36 387.7l29 115.36a13.65 13.65 0 0013.22 10.31h149l-3.21-12.75h-117.7a13.64 13.64 0 01-13.22-10.31L228.42 375a13.82 13.82 0 01-.39-4.21h-14.45a13.63 13.63 0 00-13.22 16.91z" fill="#5d6295"/><circle cx="286.64" cy="445.87" fill="#abb2d8" r="7.46"/><path d="M276.66 457a14.61 14.61 0 1020.18-20.18A14.62 14.62 0 01276.66 457z" fill="#abb2d8"/><path d="M578.13 845.66h85.72l8.74-22.03-110.06-17.28z" fill="#332d52"/><circle cx="656.73" cy="836.48" fill="#141334" r="5.35"/><circle cx="657.04" cy="837.93" fill="#666da2" r="3.9"/><path d="M657 840.48a3 3 0 00.52 0 2.61 2.61 0 000-5.21 2.24 2.24 0 00-.52.06 2.61 2.61 0 010 5.1z" fill="#332d52"/><path d="M657.64 834.67a2.93 2.93 0 00-.67-.07 3.33 3.33 0 000 6.65 2.93 2.93 0 00.67-.07 3.33 3.33 0 010-6.51z" fill="#9da5d1"/><path d="M288.31 815.29l79.56 31.89 16.31-17.19L288.45 773z" fill="#262344"/><circle cx="365.1" cy="832.79" fill="#141334" r="5.35"/><circle cx="365.41" cy="834.24" fill="#666da2" r="3.9"/><path d="M365.41 836.78a2.24 2.24 0 00.52.06 2.61 2.61 0 000-5.21 3 3 0 00-.52 0 2.61 2.61 0 010 5.1z" fill="#332d52"/><path d="M366 831a2.93 2.93 0 00-.67-.07 3.33 3.33 0 000 6.65 2.93 2.93 0 00.67-.07 3.33 3.33 0 010-6.51z" fill="#9da5d1"/></svg>