<svg viewBox="0 0 1000 1000" xmlns="http://www.w3.org/2000/svg"><path d="M972.14 624.35v10.41A132 132 0 01956 698.11c-.5.91-1 1.81-1.52 2.7a133 133 0 01-25.46 31.69c-.46.43-.93.85-1.4 1.27l-.14.12-1.61 1.4a131.59 131.59 0 01-24.37 16.59c-2.38 1.26-4.81 2.45-7.27 3.56a128.46 128.46 0 01-15 5.71c-1.21.38-2.43.74-3.65 1.08a132.49 132.49 0 01-35.9 4.93H786a27.32 27.32 0 00-27.31 27.32v101.91H302V794.48a27.26 27.26 0 00-17.36-25.43 27 27 0 00-10-1.89H184.3c-1.43 0-2.84 0-4.26-.06a137.1 137.1 0 01-55.94-13.78c-1-.47-1.91-.94-2.86-1.44a137 137 0 01-25-16.59l-.52-.43c-.38-.32-.76-.64-1.13-1L93 732.5a127.8 127.8 0 01-6-5.64 138.1 138.1 0 01-20.44-26.05 136.47 136.47 0 01-16.93-42.9 138.76 138.76 0 010-56.73c.23-1.15.49-2.29.76-3.43q1.07-4.5 2.43-8.9.77-2.46 1.62-4.89a136.31 136.31 0 0113.82-28.38 138.47 138.47 0 0131.94-34.94q4.42-3.43 9.16-6.5a136.79 136.79 0 0138.54-17.32q5.91-1.62 12-2.71 4.53-.83 9.16-1.33a138.87 138.87 0 0115.24-.78h106.05a35.75 35.75 0 0035.75-34.84v-1.33a35.74 35.74 0 00-29.9-34.86 35.34 35.34 0 00-5.85-.48H109.37a83.19 83.19 0 01-57-24.46 81.12 81.12 0 01-2.72-2.85 83.55 83.55 0 010-112.54c.88-1 1.79-1.92 2.72-2.85a83.19 83.19 0 0157-24.46h2.1a69 69 0 0036.44-10.35 69.94 69.94 0 0012-9.42 69.24 69.24 0 0020.84-49.52v-70.6A27.31 27.31 0 01208.08 86h636.59a83.61 83.61 0 0133.68 160.14 81.56 81.56 0 01-9.16 3.41 83.43 83.43 0 01-24.52 3.66h-68a48.57 48.57 0 00-23.29 5.93c-1.26.69-2.49 1.44-3.68 2.24a48.57 48.57 0 00-21.63 40.42 48.54 48.54 0 0021.63 40.42 47.8 47.8 0 009.16 4.8 48.34 48.34 0 0017.81 3.37c.89 0 1.77 0 2.65.06a62.43 62.43 0 0130.1 9.12c1.08.65 2.13 1.33 3.16 2.05a61.91 61.91 0 016 4.73 62.85 62.85 0 0121.11 47.06v43a43.93 43.93 0 0029.5 41.59c.59.21 1.19.4 1.79.58 2.38.71 4.84 1.49 7.37 2.37 5.09 1.73 10.44 3.8 15.91 6.25a152 152 0 0134.65 21.21 123.15 123.15 0 019.16 8.34 115.25 115.25 0 0115.22 18.87A112.89 112.89 0 01966.42 584q.74 2.4 1.38 4.89c.75 2.88 1.42 5.85 2 8.9a146 146 0 012.34 26.56z" fill="#f3f4fe"/><path d="M875.63 762.23a132.49 132.49 0 01-35.9 4.93H786a27.32 27.32 0 00-27.31 27.32v101.91H302s57-264.09 155-267.22S579.05 732.5 579.05 732.5s17.16-188.88 153.65-202.3c70.45-6.93 115.67 113.69 142.93 232.03z" fill="#ebecfd"/><g fill="#d2d6fa"><rect height="17.61" rx="8.8" transform="rotate(180 110.875 905.19)" width="74.06" x="73.85" y="896.39"/><rect height="17.61" rx="8.8" transform="rotate(180 560.045 905.19)" width="809.94" x="155.08" y="896.39"/><path d="M972.14 624.35v10.41A132 132 0 01956 698.11c-.5.91-1 1.81-1.52 2.7a133 133 0 01-25.46 31.69c-.46.43-.93.85-1.4 1.27l-.14.12-1.61 1.4a131.59 131.59 0 01-24.37 16.59c-2.38 1.26-4.81 2.45-7.27 3.56a128.46 128.46 0 01-15 5.71 132.52 132.52 0 01-39.55 6H786a27.32 27.32 0 00-27.31 27.32v101.92H682.8V86h161.87a83.61 83.61 0 0133.68 160.14 81.56 81.56 0 01-9.16 3.41 83.43 83.43 0 01-24.52 3.66h-68a48.57 48.57 0 00-23.29 5.93c-1.26.69-2.49 1.44-3.68 2.24a48.57 48.57 0 00-21.63 40.42 48.54 48.54 0 0021.63 40.42 47.8 47.8 0 009.16 4.8 48.34 48.34 0 0017.81 3.37c.89 0 1.77 0 2.65.06a62.43 62.43 0 0130.1 9.12c1.08.65 2.13 1.33 3.16 2.05a61.91 61.91 0 016 4.73 62.85 62.85 0 0121.11 47.06v43a43.93 43.93 0 0029.5 41.59c.59.21 1.19.4 1.79.58 2.38.71 4.84 1.49 7.37 2.37 5.09 1.73 10.44 3.8 15.91 6.25a152 152 0 0134.65 21.21 123.15 123.15 0 019.16 8.34 115.25 115.25 0 0115.22 18.87A112.89 112.89 0 01966.42 584q.74 2.4 1.38 4.89c.75 2.88 1.42 5.85 2 8.9a146 146 0 012.34 26.56z"/></g><path d="M972.14 624.35v10.41A132 132 0 01956 698.11c-.5.91-1 1.81-1.52 2.7h-242.3V124.07h202.6a83.61 83.61 0 01-36.43 122.08 81.56 81.56 0 01-9.16 3.41 83.43 83.43 0 01-24.52 3.66h-68a48.57 48.57 0 00-23.29 5.93c-1.26.69-2.49 1.44-3.68 2.24a48.57 48.57 0 00-21.63 40.42 48.54 48.54 0 0021.63 40.42 47.8 47.8 0 009.16 4.8 48.34 48.34 0 0017.81 3.37c.89 0 1.77 0 2.65.06a62.43 62.43 0 0130.1 9.12c1.08.65 2.13 1.33 3.16 2.05a61.91 61.91 0 016 4.73 62.85 62.85 0 0121.11 47.06v43a43.93 43.93 0 0029.5 41.58c.59.21 1.19.4 1.79.58 2.38.71 4.84 1.49 7.37 2.37 5.09 1.73 10.44 3.8 15.91 6.25a152 152 0 0134.65 21.21 123.15 123.15 0 019.16 8.34 115.25 115.25 0 0115.22 18.87A112.89 112.89 0 01966.42 584q.74 2.4 1.38 4.89c.75 2.88 1.42 5.85 2 8.9a146 146 0 012.34 26.56z" fill="#f1f2fd"/><g fill="#d2d6fa"><path d="M967.8 588.85c.75 2.88 1.42 5.85 2 8.9H712.18v-8.9zM758.9 124.07v132.52a48 48 0 00-5.48 2.56c-1.26.69-2.49 1.44-3.68 2.24V124.07z"/><path d="M749.74 342.24a47.8 47.8 0 009.16 4.8v353.77h-9.16zm59.73-218.17h9.15v129.15h-9.15zm3.16 237.57a61.91 61.91 0 016 4.73v334.44h-9.15V359.59c1.07.65 2.12 1.33 3.15 2.05zm65.72-237.57v122.08a81.56 81.56 0 01-9.16 3.41V124.07zM871 498.54c2.38.71 4.84 1.49 7.37 2.37v199.9h-9.16V498c.57.17 1.17.36 1.79.54zm67.07 38.17v164.1h-9.16V528.37a123.15 123.15 0 019.16 8.34zM355.47 86v810.39H302V794.48a27.26 27.26 0 00-17.36-25.43 27 27 0 00-10-1.89H184.3c-1.43 0-2.84 0-4.26-.06a137.1 137.1 0 01-55.94-13.78c-1-.47-1.91-.94-2.86-1.44a137 137 0 01-25-16.59l-.52-.43c-.38-.32-.76-.64-1.13-1L93 732.5a127.8 127.8 0 01-6-5.64 138.1 138.1 0 01-20.44-26.05 136.47 136.47 0 01-16.93-42.9 138.76 138.76 0 010-56.73c.23-1.15.49-2.29.76-3.43q1.07-4.5 2.43-8.9.77-2.46 1.62-4.89a136.31 136.31 0 0113.82-28.38 138.47 138.47 0 0131.94-34.94q4.42-3.43 9.16-6.5a136.79 136.79 0 0138.54-17.32q5.91-1.62 12-2.71 4.53-.83 9.16-1.33a138.87 138.87 0 0115.24-.78h106.05a35.75 35.75 0 0035.75-34.84v-1.33a35.74 35.74 0 00-29.9-34.86 35.34 35.34 0 00-5.85-.48H109.37a83.19 83.19 0 01-57-24.46 81.12 81.12 0 01-2.72-2.85 83.55 83.55 0 010-112.54c.88-1 1.79-1.92 2.72-2.85a83.19 83.19 0 0157-24.46h2.1a69 69 0 0036.44-10.35 69.94 69.94 0 0012-9.42 69.24 69.24 0 0020.84-49.52v-70.6A27.31 27.31 0 01208.08 86z"/></g><path d="M326.1 124.07v331.71a35.74 35.74 0 00-29.9-34.86 35.34 35.34 0 00-5.85-.48H109.37a83.19 83.19 0 01-57-24.46 81.12 81.12 0 01-2.72-2.85 83.55 83.55 0 010-112.54c.88-1 1.79-1.92 2.72-2.85a83.19 83.19 0 0157-24.46h2.1a69 69 0 0036.44-10.35 69.94 69.94 0 0012-9.42 69.24 69.24 0 0020.84-49.52v-59.92zm0 333.04v243.7H66.57a136.47 136.47 0 01-16.93-42.9 138.76 138.76 0 010-56.73c.23-1.15.49-2.29.76-3.43q1.07-4.5 2.43-8.9.77-2.46 1.62-4.89a136.31 136.31 0 0113.82-28.38 138.47 138.47 0 0131.94-34.94q4.42-3.43 9.16-6.5a136.79 136.79 0 0138.54-17.32q5.91-1.62 12-2.71 4.53-.83 9.16-1.33a138.87 138.87 0 0115.23-.78h106.05a35.75 35.75 0 0035.75-34.84z" fill="#f1f2fd"/><g fill="#d2d6fa"><path d="M326.1 588.85v8.9H50.4q1.07-4.5 2.43-8.9zm-46.73-464.78h9.16v296.37h-9.16z"/><path d="M279.37 491.95h9.16v208.86h-9.16zm-59.72-367.88h9.16v296.37h-9.16zm0 367.88h9.16v208.86h-9.16zm-50.56-269.53v198h-9.16v-187a68.71 68.71 0 009.16-11zm-9.16 271.69q4.53-.83 9.16-1.33v208h-9.16zm-50.56-240.86v167.16a83.61 83.61 0 01-9.16-.72V254a83.61 83.61 0 019.16-.75zm-9.16 267.39q4.42-3.43 9.16-6.5v186.67h-9.16zM49.64 280.56V393.1a83.07 83.07 0 01-9.16-12.1v-88.34a83.07 83.07 0 019.16-12.1zm0 320.62v56.73a138.76 138.76 0 010-56.73z"/></g><g fill="#ebecfd"><path d="M643.27 343.25h-37a18.48 18.48 0 0137 0z"/><path d="M622.48 343.25H569.4a26.54 26.54 0 0153.08 0z"/><path d="M599.13 343.25h-64.8a32.4 32.4 0 0164.8 0z"/></g><g fill="#d2d6fa"><path d="M363.63 287.71h301.62v6.95H363.63z"/><path d="M363.63 287.71h301.62v6.95H363.63z"/><path d="M631.51 86.01v207.16h-6.95V86.01zM517.91 86v207.16h-6.95V86zm-113.61.01v207.16h-6.95V86.01z"/><path d="M363.63 257.95h301.62v6.95H363.63zm0 15.12h301.62v6.95H363.63zm0-44.89h301.62v6.95H363.63zm0-29.76h301.62v6.95H363.63zm0-29.77h301.62v6.95H363.63zm0-29.76h301.62v6.95H363.63zm0-29.77h301.62v6.95H363.63zm0 133.95h301.62v6.95H363.63zm0-29.77h301.62v6.95H363.63zm0-29.76h301.62v6.95H363.63zm0-29.77h301.62v6.95H363.63zm0-29.76h301.62v6.95H363.63zm0-29.77h301.62v6.95H363.63z"/></g><path d="M390 856.68a258.87 258.87 0 003 39.77h453.3a258.87 258.87 0 003-39.77c0-92.61-48.13-173.22-119.15-214.9a217.41 217.41 0 00-110.54-30.19c-73.88 0-139.63 37.22-181.64 95.06C407.91 748.1 390 800.16 390 856.68z" fill="#7986bf"/><path d="M285.77 896.46h293.45c0-85.61-58.32-159-141.19-189.81a239.14 239.14 0 00-23.78-7.5C345 747.08 297.31 817 285.77 896.46z" fill="#7986bf"/><path d="M468.84 896.46h377.48a259 259 0 003-36.38v-3.4c0-61-20.89-116.81-55.44-159.69a235.72 235.72 0 00-49-45.77q-7.19-5-14.74-9.44c-138.09 30.65-243.34 131.07-261.3 254.68z" fill="#d2d6fa"/><path d="M591.47 896.46h255.82c1.25-11.85 1.94-24 2.05-36.38v-3.4c0-61-20.89-116.81-55.44-159.69-133.16 42.79-194.18 115.69-202.43 199.47z" fill="#7986bf"/><path d="M773.816 544.654l16.625 2.553a12.57 12.57 0 0110.51 14.372l-16.625-2.553a12.57 12.57 0 01-10.51-14.372z" fill="#153e63"/><path d="M800.9 561.42a12.54 12.54 0 00-10.52-10.53l-16.63-2.55a12.34 12.34 0 010-3.74l16.63 2.55a12.57 12.57 0 0110.52 14.27z" fill="#0c314c"/><circle cx="595.12" cy="399.83" fill="#153e63" r="50.55"/><path d="M551.16 402A50.49 50.49 0 00575 446.2a50.56 50.56 0 1146.8-89.33A50.58 50.58 0 00551.16 402z" fill="#396e96"/><rect fill="#153e63" height="87.15" rx="43.57" transform="rotate(1.44 671.19 434.062)" width="96.65" x="622.33" y="390.12"/><rect fill="#153e63" height="87.15" rx="43.57" transform="rotate(1.44 705.69 424.476)" width="96.65" x="656.97" y="380.77"/><path d="M590.61 416.71l-.87 34.45a18.91 18.91 0 0037.81.95l.87-34.45a18.91 18.91 0 10-37.81-1z" fill="#f5a491"/><path d="M590.61 416.71l-.67 26.5a89.64 89.64 0 0037.82.71l.66-26.26a18.91 18.91 0 10-37.81-1z" fill="#ef927f"/><path d="M565.34 339.19l-.09 10-.06 6.87-.38 40.7a39.41 39.41 0 0039 39.76A65.52 65.52 0 00670 371.65l.26-28.64a35.67 35.67 0 00-35.33-36l-29.32-.26-7.11-.07a32.81 32.81 0 00-33.16 32.51z" fill="#f5a491"/><path d="M607.44 436.47c-1.19.07-2.39.09-3.59.08a39.41 39.41 0 01-39-39.77l.37-40.68.06-6.88.08-10a32.82 32.82 0 0133.13-32.51h3.74a32.81 32.81 0 00-31.14 32.47l-.09 10-.07 6.88-.37 40.68a39.41 39.41 0 0036.88 39.73z" fill="#ffc4af"/><path d="M565.34 339.19l-.09 10-.06 6.87a32.38 32.38 0 0040.38-49.33l-7.11-.07a32.81 32.81 0 00-33.12 32.53z" fill="#ef927f"/><ellipse cx="581.2" cy="380.8" fill="#230d30" rx="4.37" ry="3.74" transform="rotate(-88.56 581.194 380.799)"/><ellipse cx="611.02" cy="381.55" fill="#230d30" rx="4.37" ry="3.74" transform="rotate(-88.56 611.013 381.548)"/><circle cx="681.66" cy="371.66" fill="#153e63" r="34.35"/><path d="M753.61 424.44v1.12a43.52 43.52 0 01-21.32 36.38 43.53 43.53 0 0016.47-33.05v-1.12A43.56 43.56 0 00713.33 385c-1.15-.22-2.32-.39-3.5-.51a32.81 32.81 0 00.82-3.59 33.36 33.36 0 00.5-5 34.35 34.35 0 00-51.28-30.74 34.34 34.34 0 0154.81 36 43.58 43.58 0 0138.93 43.28z" fill="#0c314c"/><g fill="#153e63"><circle cx="718.34" cy="459.8" r="31.03"/><circle cx="734.65" cy="491.25" r="24.97"/><circle cx="744.57" cy="512.92" r="20.26"/><circle cx="764.35" cy="532.39" r="17.62"/></g><path d="M776.2 545.41a17.32 17.32 0 002-7.66 17.66 17.66 0 00-14.6-17.82 20 20 0 00-2.58-.24H761a11.9 11.9 0 00.09-1.34 19.92 19.92 0 00-5.14-14 14.54 14.54 0 00-1.09-1.13 24.34 24.34 0 001-6.43v-.71A24.94 24.94 0 00745 475.61c-.38-.26-.76-.51-1.16-.75a29.52 29.52 0 001.44-6.19 30.11 30.11 0 00.25-3.17A31 31 0 00692 443.44 31 31 0 01747.67 470a25 25 0 0110.94 28.35 20.26 20.26 0 016.23 15.13c0 .45 0 .91-.08 1.34a17.61 17.61 0 0111.4 30.64z" fill="#0c314c"/><circle cx="666.97" cy="383.05" fill="#f5a491" r="16.66"/><path d="M672 383.35a7.21 7.21 0 01-4.57 6.52 2.05 2.05 0 01-2.74-2l.23-9.35a2.09 2.09 0 013-1.81 7.21 7.21 0 014.08 6.64z" fill="#ef927f"/><rect fill="#e1160c" height="20.08" rx="3.68" transform="rotate(53.59 776.937 546.454)" width="7.37" x="773.21" y="536.34"/><circle cx="659.43" cy="325.99" fill="#153e63" r="36.19"/><path d="M692 341.87a35.66 35.66 0 001-7.51 36.19 36.19 0 00-68.7-16.78 36.19 36.19 0 1167.7 24.29z" fill="#0c314c"/><circle cx="604.54" cy="306.25" fill="#153e63" r="36.19"/><circle cx="565.49" cy="332.79" fill="#153e63" r="36.19"/><path d="M636.29 288.89a36.2 36.2 0 00-55.62 11 35.09 35.09 0 00-2.75 7.13c-1-.12-2.11-.2-3.2-.23a36.93 36.93 0 00-6.34.39 36.22 36.22 0 00-26.33 53.15 36.19 36.19 0 0124.35-63.75 30.3 30.3 0 013.2.23 36.18 36.18 0 0166.69-8z" fill="#396e96"/><circle cx="609.99" cy="311.18" fill="#396e96" r="19.34"/><rect fill="#f5a491" height="163.83" rx="31.49" transform="rotate(53.92 535.875 519.07)" width="62.99" x="504.39" y="437.17"/><rect fill="#ef948c" height="74.06" rx="25.76" transform="rotate(114.9 430.695 446.259)" width="51.52" x="404.94" y="409.21"/><rect fill="#f5a491" height="163.83" rx="26.01" transform="rotate(-26.35 467.471 504.244)" width="52.01" x="441.56" y="422.39"/><rect fill="#f5a491" height="74.06" rx="25.76" transform="rotate(114.9 430.695 446.259)" width="51.52" x="404.94" y="409.21"/><path d="M604.8 503.46a31.06 31.06 0 01-9.62 11.39l-81.49 59.38a31.3 31.3 0 01-18.51 6 26 26 0 01-24.84-12.1c-9.88-14.33-48.46-97.6-48.46-97.6l-12.18-5.67a25.75 25.75 0 01-8.72-40.11s0 .06-.05.1A25.74 25.74 0 00413.37 459l4.3 2 7.89 3.66 4.85 9.81s43.17 87.07 43.6 87.77a31.43 31.43 0 0024.88 12.16 31.39 31.39 0 0012.91-2.78 32.27 32.27 0 005.6-3.26L598.93 509a31.51 31.51 0 005.87-5.54z" fill="#ef927f"/><g fill="#f5a491"><rect height="70.81" rx="9.32" transform="rotate(114.9 419.66 423.009)" width="18.64" x="410.34" y="387.58"/><rect height="47.65" rx="9.32" transform="rotate(147.86 442.993 423.548)" width="18.64" x="433.66" y="399.75"/><circle cx="444.96" cy="441.87" r="18.36"/></g><g fill="#ef927f"><rect height="82.55" rx="41.28" transform="rotate(4.04 452.743 670.874)" width="206.74" x="349.08" y="629.05"/><path d="M201.43 864.57a24.17 24.17 0 012.25-30.16l63.58-68.15a19.77 19.77 0 0130.77 2.3l15.1 22A36.94 36.94 0 01295.65 846l-65 27.15a24.17 24.17 0 01-29.22-8.58z"/><path d="M300.13 815.77l112.71-119.95c15.32-16.31 16-43.41.35-59.74-15.81-16.54-40.71-14.17-54.56 4.34L257.25 775.76c-7.51 10-4 26.44 7.47 37 11.36 10.46 27.02 11.94 35.41 3.01z"/></g><g fill="#f5a491"><rect height="82.55" rx="41.28" transform="rotate(3.56 480.338 733.78)" width="194.89" x="382.98" y="692.66"/><path d="M310.47 846.06l133.36-84.93c18-11.32 22.76-36 9.67-54.65-13.08-18.61-38-22.5-54.7-9.38l-125 96.8c-10.57 8.29-10.92 26-1.18 39.81 9.72 13.85 26.48 19.5 37.85 12.35z"/><path d="M199.17 885a24.17 24.17 0 015.09-29.81L278.83 790a19.78 19.78 0 0130.42 5.19l12.95 23.32a36.93 36.93 0 01-22.63 53.59l-72.1 24.31a24.16 24.16 0 01-28.3-11.41z"/></g><path d="M577.77 737.41c0 .84 0 1.72-.08 2.58a41.3 41.3 0 01-43.77 38.63L426.84 772l-100 63.66a36.94 36.94 0 01-27.29 36.46l-72.09 24.31a24.18 24.18 0 01-30.58-29.13 23.82 23.82 0 002.28 5.71 24.17 24.17 0 0028.3 11.34L299.57 860c12.2-3.31 18.83-12.27 22.33-23.15 1-3.15-1.47-10.12-1.47-10.12l91.05-57.06 15.36-9.78 17.28 1.07 89.8 5.6a41.31 41.31 0 0043.41-35.21 42 42 0 01.44 6.06z" fill="#ef927f"/><rect fill="#f5a491" height="164.58" rx="31.64" transform="rotate(-64.21 692.466 514.788)" width="63.28" x="660.79" y="432.5"/><path d="M766 522a31.57 31.57 0 012.27 24.06 27.72 27.72 0 00-2-18.69c-.29-.61-.6-1.2-.92-1.77a27.62 27.62 0 00-13.08-11.6 31.61 31.61 0 00-9-6.52L652 463.36a31.1 31.1 0 00-6.19-2.24 31.34 31.34 0 0114.75 3.15l91.21 44.05A31.55 31.55 0 01766 522z" fill="#ffc4af"/><rect fill="#ffc4af" height="61.92" rx="10.79" transform="rotate(54.88 357.762 753.978)" width="21.58" x="346.97" y="723.02"/><path d="M653.243 676.598l-97.909-5.954 9.108-149.774 97.91 5.954z" fill="#fff"/><path d="M662.31 526.85l-97.9-5.95-2.3 37.9 98.5-3.93z" fill="#efd6d8"/><path d="M670.88 514.672l-129.87-7.897.076-1.248a60.77 60.77 0 0164.346-56.97l8.545.52a60.77 60.77 0 0156.979 64.348l-.08 1.297.004-.05z" fill="#f5a491"/><rect fill="#fff" height="65.91" rx="32.95" transform="rotate(-176.52 604.93 510.466)" width="148.17" x="530.83" y="477.53"/><path d="M678.86 515A32.94 32.94 0 01646 545.92h-2l-8.38-.52a36.36 36.36 0 00-3.13-66.21l15.51.94A33 33 0 01678.86 515z" fill="#efd6d8"/><path d="M478.84 619.758l120.138 7.474a56.36 56.36 0 0152.76 59.771l-1.34 21.559a78 78 0 01-82.693 73.006l-113.002-7.03a.77.77 0 01-.72-.817l8.69-139.68a15.26 15.26 0 0116.168-14.283z" fill="#58a0eb"/><path d="M559.828 596.123l97.182 6.046-5.724 92.012-97.182-6.046z" fill="#58a0eb"/><path d="M658.14 602.16l-5.3 84.84-.45 7.17-.91 14.38c-2.68 43-39.88 75.64-83.1 73l-113.67-7a.77.77 0 01-.73-.82l.66-10.62 94 5.8c43.21 2.68 80.42-30 83.11-73l.19-3 .71-11.4.44-7.18 2-31.87 2.61-41.55z" fill="#2d639e"/><rect fill="#e1617f" height="47.87" rx="9.36" transform="rotate(58.4 611.625 588.696)" width="18.72" x="602.26" y="564.76"/><circle cx="630.02" cy="586.89" fill="#e1617f" r="18.44"/><rect fill="#ef948c" height="74.4" rx="25.88" transform="rotate(25.45 634.242 601.186)" width="51.76" x="608.4" y="564.05"/><rect fill="#ef948c" height="71.13" rx="9.36" transform="rotate(25.45 610.771 612.048)" width="18.72" x="601.45" y="576.55"/><g fill="#f5a491"><rect height="47.87" rx="9.36" transform="rotate(58.4 611.625 588.696)" width="18.72" x="602.26" y="564.76"/><circle cx="630.02" cy="586.89" r="18.44"/><path d="M765.37 525.63c.32.57.63 1.16.92 1.77a27.72 27.72 0 012 18.69v.06c-.1.45-.22.89-.36 1.34s-.23.72-.35 1.08a29.23 29.23 0 01-2.32 5.06c-.19.31-.37.62-.56.92 0 .08-.1.15-.15.23-.22.34-.45.67-.7 1s-.44.62-.68.92c0 .07-.1.13-.15.2-.24.3-.48.58-.73.87l-.06.08c-.28.3-.56.62-.85.92s-.6.61-.91.9c0 0 0 .05-.05.06-.31.29-.62.57-.94.84s-.67.58-1 .85-.7.53-1.06.79a28.28 28.28 0 01-4 2.38l-98 47.38a27.85 27.85 0 11-24.25-50.15l98-47.39a27.78 27.78 0 0123.17-.5 27.62 27.62 0 0113.03 11.7z"/><rect height="74.4" rx="25.88" transform="rotate(25.45 634.242 601.186)" width="51.76" x="608.4" y="564.05"/></g><path d="M765.37 525.63c.32.57.63 1.16.92 1.77a27.72 27.72 0 012 18.69v.06c-.1.45-.22.89-.36 1.34s-.23.72-.35 1.08a29.23 29.23 0 01-2.32 5.06c-.19.31-.37.62-.56.92 0 .08-.1.15-.15.23-.22.34-.45.67-.7 1s-.44.62-.68.92c0 .07-.1.13-.15.2-.24.3-.48.58-.73.87l-.06.08c-.28.3-.56.62-.85.92s-.6.61-.91.9c0 0 0 .05-.05.06-.31.29-.62.57-.94.84s-.67.58-1 .85-.7.53-1.06.79a26.91 26.91 0 01-4 2.39l-94.76 45.81-5.8 12.18a25.89 25.89 0 01-30.31 13.79 25.93 25.93 0 0021.75-14.71l3.45-7.26 2.34-4.9 11.69-5.65 73.46-35.51 9.62-4.65a27.78 27.78 0 0014.93-18.5 31.53 31.53 0 00-7.45-31.2 27.62 27.62 0 0113.03 11.63z" fill="#ffc4af"/><rect fill="#f5a491" height="71.13" rx="9.36" transform="rotate(25.45 610.771 612.048)" width="18.72" x="601.45" y="576.55"/><rect fill="#ffc4af" height="31.56" rx="8.17" transform="rotate(25.45 636.542 604.157)" width="16.35" x="628.42" y="588.44"/><rect fill="#6f7d96" height="73.83" rx="3.68" transform="rotate(153.63 665.692 581.82)" width="7.35" x="662.02" y="544.89"/><rect fill="#4e4a65" height="68.62" rx="3.68" transform="rotate(153.63 678.29 575.572)" width="7.35" x="674.62" y="541.25"/><g fill="#a7bbd8"><path d="M530.43 624.66h-14v-2.67a4.59 4.59 0 014.59-4.59h4.87a4.59 4.59 0 014.59 4.59v2.67z"/><path d="M544.4 624.66h-14v-2.67a4.59 4.59 0 014.59-4.59h4.84a4.59 4.59 0 014.59 4.59v2.67h-.02z"/><path d="M558.36 624.66h-14v-2.67a4.59 4.59 0 014.59-4.59h4.81a4.59 4.59 0 014.59 4.59v2.67z"/></g><rect fill="#6f7d96" height="11.38" rx="5.69" transform="rotate(180 493.405 626.42)" width="159.42" x="413.7" y="620.73"/><path d="M517.3 632.11h-133a12.18 12.18 0 01-11.8-9.2l-25.92-103a12.18 12.18 0 0111.8-15.14h117.4a12.16 12.16 0 0111.8 9.2z" fill="#8797b1"/><path d="M346.56 519.92l25.92 103a12.18 12.18 0 0011.8 9.2h135.08l-2.87-11.38H409.34a12.18 12.18 0 01-11.81-9.2l-25.91-103a12.12 12.12 0 01-.35-3.76h-12.9a12.18 12.18 0 00-11.81 15.14z" fill="#6f7d96"/><path d="M437.39 566.78a11.83 11.83 0 01-22.23 5.64A11.84 11.84 0 00430.33 556a11.81 11.81 0 017.06 10.78z" fill="#a7bbd8"/><path d="M550.21 741.84c-1.75.08-3.51.08-5.29 0l-53.28-2a5.73 5.73 0 11.44-11.46l53.27 2A52.29 52.29 0 00598 690.46l7.32-30.46a5.74 5.74 0 0111.16 2.68l-7.3 30.42a63.81 63.81 0 01-58.97 48.74z" fill="#6ab0ef"/><path d="M587.91 395.19a8.85 8.85 0 002.39 6.37c.2.21.4.41.61.6a8.84 8.84 0 005.59 2.22h.36a8.75 8.75 0 005.29-1.53 8.9 8.9 0 003.84-6.32v-.74a1.71 1.71 0 00-1.66-1.78l-14.69-.49a1.71 1.71 0 00-1.73 1.67z" fill="#962f4a"/><path d="M596.72 403a7.7 7.7 0 00.09 1.37h.05a8.89 8.89 0 009.13-7.86 7.09 7.09 0 00-9.27 6.49z" fill="#e1617f"/><path d="M590 393.54c0 1.74 2.65 3.23 6 3.34s6-1.19 6.17-2.94z" fill="#fff"/></svg>