<svg viewBox="0 0 1000 1000" xmlns="http://www.w3.org/2000/svg"><path d="M972.14 628.2v10.41A132.51 132.51 0 01908.21 752a127.76 127.76 0 01-11.83 6.35c-.7.34-1.41.67-2.12 1a128.46 128.46 0 01-15 5.71l-1.39.42a132.46 132.46 0 01-38.14 5.52H786a27.32 27.32 0 00-27.31 27.32v101.92H302V798.33a27.26 27.26 0 00-17.36-25.43c-.77-.3-1.55-.57-2.35-.81a27.18 27.18 0 00-3-.68 26 26 0 00-4.61-.4H184.3c-1.43 0-2.84 0-4.26-.06a137.23 137.23 0 01-32.13-4.81 68.61 68.61 0 01-3.38-1 135.75 135.75 0 01-20.43-8 137.24 137.24 0 01-28.38-18.46q-4.53-3.81-8.71-8a137.67 137.67 0 0157.52-229.07c1.12-.34 2.25-.66 3.38-1a137.34 137.34 0 0136.39-4.87h106.05a35.7 35.7 0 007.29-.75l.29-.06a35.66 35.66 0 0017.71-9.66 33.77 33.77 0 002.75-3.11v-.05a34.47 34.47 0 002.74-4v-.05a35.75 35.75 0 00-30.85-53.83H111.47a83.6 83.6 0 01-59.11-142.67L53 281l.26-.25a83.42 83.42 0 0158.23-23.63A69.19 69.19 0 00158 239.14c1.07-1 2.1-2 3.11-3a69 69 0 0019.53-43.82c.1-1.5.15-3 .15-4.54a97.92 97.92 0 0197.92-97.92h566a83.62 83.62 0 0180.09 59.56 84.59 84.59 0 013.52 24.05c0 2.9-.15 5.76-.43 8.58a84.6 84.6 0 01-1.7 10.27 83.64 83.64 0 01-81.48 64.75h-68a48.26 48.26 0 00-17.39 3.21 47 47 0 00-5.89 2.72 49 49 0 00-18.57 18c-.6 1-1.17 2.07-1.7 3.14a48.22 48.22 0 00-5 21.57v.29c0 1.5.09 3 .23 4.44a48.09 48.09 0 005 17.13c.39.77.8 1.53 1.23 2.27a48.63 48.63 0 0042.18 24.46c.82 0 1.62 0 2.43.05h.22a62.55 62.55 0 0126.12 6.88 63.2 63.2 0 0129.47 32c0 .11.09.21.13.32a61.62 61.62 0 013.82 13.62 62.82 62.82 0 01.82 10.15v43a41.35 41.35 0 00.28 4.87 43.94 43.94 0 0031 37.23l.27.08a190 190 0 0123 8.54l2.12 1c3.92 1.82 7.88 3.84 11.83 6.08a136.11 136.11 0 0131 23.69 115.24 115.24 0 0111.6 14c.84 1.19 1.65 2.4 2.45 3.63a112.89 112.89 0 0113.13 28.38 137.49 137.49 0 015.65 40.38z" fill="#fffaf4"/><path d="M636.1 541.75h-28.94l-8.41-93.83a4.25 4.25 0 014.25-4.62h20.4a4.24 4.24 0 014.23 3.86z" fill="#f9e7d9"/><circle cx="617.22" cy="490.65" fill="#efd6c5" r="8.82"/><path d="M574.89 443.3h18.4a5.27 5.27 0 015.27 5.27v93.19h-28.94v-93.19a5.27 5.27 0 015.27-5.27z" fill="#f9e7d9"/><circle cx="584.09" cy="490.65" fill="#efd6c5" r="8.82"/><rect fill="#f9e7d9" height="98.45" rx="5.45" transform="rotate(90 759.88 527.28)" width="28.94" x="745.41" y="478.05"/><circle cx="761.76" cy="527.28" fill="#efd6c5" r="8.82"/><rect fill="#f9e7d9" height="98.45" rx="5.45" transform="rotate(90 772.25 498.34)" width="28.94" x="757.77" y="449.11"/><circle cx="774.13" cy="498.34" fill="#efd6c5" r="8.82"/><rect fill="#f9e7d9" height="40.46" rx="5.5" width="51.95" x="644.15" y="614.43"/><circle cx="670.13" cy="634.66" fill="#e8d1c1" r="10.5"/><circle cx="664.88" cy="634.66" fill="#d3aa94" r="1.07"/><circle cx="675.92" cy="634.66" fill="#d3aa94" r="1.07"/><g fill="#f9e7d9"><path d="M950.84 555.8H554.43v-14h384.81a115.24 115.24 0 0111.6 14zM746.66 343.85H554.43V329.8h180.1a48.7 48.7 0 0012.13 14.05z"/><path d="M546.84 230a7.59 7.59 0 017.59 7.59v662.65h-15.18V237.57a7.59 7.59 0 017.59-7.59z"/></g><rect fill="#f2e1d3" height="23.42" rx="2.7" width="55.69" x="631.46" y="152.99"/><rect fill="#f9eee4" height="23.42" rx="2.7" width="55.69" x="593.27" y="185.34"/><rect fill="#f9eee4" height="23.42" rx="2.7" width="55.69" x="523.68" y="185.34"/><rect fill="#f9e7d9" height="23.42" rx="2.7" width="55.69" x="668.02" y="185.34"/><rect fill="#f9e7d9" height="23.42" rx="2.7" width="55.69" x="561.33" y="218.27"/><rect fill="#f2e1d3" height="23.42" rx="2.7" width="55.69" x="230.11" y="605.44"/><rect fill="#f9eee4" height="23.42" rx="2.7" width="55.69" x="191.92" y="637.79"/><rect fill="#f9eee4" height="23.42" rx="2.7" width="55.69" x="122.33" y="637.79"/><rect fill="#f9e7d9" height="23.42" rx="2.7" width="55.69" x="266.66" y="637.79"/><rect fill="#f9e7d9" height="23.42" rx="2.7" width="55.69" x="159.98" y="670.72"/><rect fill="#f2e1d3" height="21.16" rx="2.44" width="50.31" x="117.8" y="292.17"/><rect fill="#f9eee4" height="21.16" rx="2.44" width="50.31" x="83.3" y="321.4"/><rect fill="#f9e7d9" height="21.16" rx="2.44" width="50.31" x="150.83" y="321.4"/><rect fill="#f2e1d3" height="21.16" rx="2.44" width="50.31" x="775.41" y="650.27"/><rect fill="#f9eee4" height="21.16" rx="2.44" width="50.31" x="740.91" y="679.5"/><rect fill="#f9e7d9" height="21.16" rx="2.44" width="50.31" x="808.44" y="679.5"/><rect fill="#a66633" height="17.61" rx="8.8" transform="rotate(180 110.195 909.045)" width="74.06" x="73.17" y="900.24"/><rect fill="#a66633" height="17.61" rx="8.8" transform="rotate(180 559.365 909.045)" width="809.94" x="154.4" y="900.24"/><rect fill="#dee4eb" height="163.51" rx="32.54" transform="rotate(139.73 441.417 312.085)" width="65.09" x="408.87" y="230.33"/><rect fill="#ef927f" height="41.89" rx="8.18" transform="rotate(80.01 616.503 319.053)" width="16.37" x="608.32" y="298.14"/><path d="M630.49 324.92l-25.12 4.43a7.68 7.68 0 01-1.43.13 8.11 8.11 0 01-4.18-1.16 8.56 8.56 0 002.44-.06l25.13-4.43a8.18 8.18 0 002.77-15.09 8.18 8.18 0 01.39 16.18z" fill="#ef927f"/><circle cx="479.09" cy="346.8" fill="#004393" r="36.82"/><rect fill="#f0a284" height="157.55" rx="28.54" transform="rotate(70.21 529.475 330.958)" width="57.09" x="500.93" y="252.17"/><ellipse cx="586.96" cy="311.12" fill="#f0a284" rx="36.39" ry="29.46" transform="rotate(-8.44 586.898 311.064)"/><rect fill="#e28f79" height="157.55" rx="28.54" transform="rotate(70.21 529.475 330.958)" width="57.09" x="500.93" y="252.17"/><ellipse cx="586.96" cy="311.12" fill="#f0a284" rx="36.39" ry="29.46" transform="rotate(-8.44 586.898 311.064)"/><path d="M623 305.78a24.25 24.25 0 00-2.71-8c-1.75 7.9-7.3 15-15.2 19.85a43.08 43.08 0 01-16.15 5.76 45.53 45.53 0 01-4.6.44l-24.07 8.67-70.78 25.4a28.47 28.47 0 01-35.44-14.63 28.22 28.22 0 001.3 14.34 28.49 28.49 0 0036.52 17.2l94.53-34a1.73 1.73 0 00.24-.1 43.77 43.77 0 004.65-.45c19.87-2.95 34.06-18.4 31.71-34.48z" fill="#ef927f"/><g fill="#f0a284"><rect height="41.89" rx="8.18" transform="rotate(75.51 618.864 302.484)" width="16.37" x="610.69" y="281.56"/><rect height="41.89" rx="8.18" transform="rotate(80.01 604.682 288.998)" width="16.37" x="596.51" y="268.08"/><rect height="41.89" rx="8.18" transform="rotate(51.56 575.563 287.48)" width="16.37" x="567.36" y="266.52"/><circle cx="565.36" cy="305.29" r="16.88"/></g><path d="M369.61 120.15h22a10.9 10.9 0 0110.9 10.9v8.34A28.55 28.55 0 01374 167.94a4.36 4.36 0 01-4.36-4.36v-43.43h-.03z" fill="#004393"/><g fill="#9a463b"><rect height="24.52" rx="12.26" width="210.64" x="324.63" y="509.7"/><path d="M413.24 516.2l-8.41 24-14.81 42.27-72.22 204.88-39.69 112.6h-30.7l28.29-112.6 51.48-204.88 11.36-42.27 6.45-24zm108.55 0l-1.37 24-2.41 42.27-14.45 204.88-7.95 112.6h-30.7l-3.45-112.6-6.29-204.88-1.05-42.27-.59-24zM393.85 364.94h96.34a4.22 4.22 0 014.22 4.22 30.75 30.75 0 01-30.75 30.75H363.1v-4.22a30.75 30.75 0 0130.75-30.75z"/><rect height="158.75" rx="17.03" width="34.05" x="406.77" y="375.47"/><path d="M317.43 282.89H382a46.75 46.75 0 0146.75 46.75v134.77A46.75 46.75 0 01382 511.16H270.68V329.64a46.75 46.75 0 0146.75-46.75z"/></g><path d="M275.7 787.35h42.1l-39.69 112.6h-30.7zm227.86 0l-7.95 112.6h-30.7l-3.45-112.6z" fill="#6f232d"/><path d="M515.405 713.142l1.491 36.66-58.362 2.375-1.491-36.66z" fill="#f0a284"/><path d="M515.405 713.143l.49 12.05-58.362 2.374-.49-12.05z" fill="#ef927f"/><path d="M481.75 756.85l56.91 2.34a28.48 28.48 0 10-56.91-2.34z" fill="#fff"/><path d="M544.51 766.05v-8.73a7.17 7.17 0 00-6.73-7.13L463 745.72a8.93 8.93 0 00-9.47 8.95v16.16z" fill="#004393"/><path d="M453.52 766v8a3.24 3.24 0 003.26 3.24l83.65-.22a9.88 9.88 0 009.86-9.91 9.87 9.87 0 00-9.91-9.85l-22.64.06a8.48 8.48 0 00-8.46 8.5z" fill="#108fd4"/><path d="M368.904 657.907l16.193-23.282 47.468 33.015-16.194 23.283z" fill="#ef927f"/><path d="M385.7 676.74l43.78 36.43a28.48 28.48 0 10-43.78-36.43z" fill="#efdadc"/><path d="M430 722.18l5.29-6.94a7.16 7.16 0 00-1-9.75l-56.69-49a8.94 8.94 0 00-13 1.35l-9.8 12.86z" fill="#004393"/><path d="M357.71 666.86l-5 6.59a3 3 0 00.57 4.22l66.72 50.8a9.88 9.88 0 0013.85-1.88 9.88 9.88 0 00-1.85-13.85L414 699a8.47 8.47 0 00-11.88 1.61z" fill="#013568"/><path d="M559.77 437.74a39.43 39.43 0 019.86 54.88l-128 184-64.73-45 128-184a39.42 39.42 0 0154.87-9.88z" fill="#004393"/><path d="M535.41 509.7H430.13a54.51 54.51 0 01-54.51-54.52v-13.29a15.74 15.74 0 0115.73-15.74h144.06a41.79 41.79 0 0141.78 41.78 41.78 41.78 0 01-41.78 41.77z" fill="#004393"/><rect fill="#fff" height="205.21" rx="28.07" transform="rotate(179.93 353.03 353.026)" width="127.03" x="289.52" y="250.42"/><path d="M373.175 346.856l-32.43.04a66.56 66.56 0 01-66.64-66.479l-.009-6.52a40.71 40.71 0 0140.62-40.74l84.17-.102a40.71 40.71 0 0140.76 40.66l.008 6.52a66.56 66.56 0 01-66.479 66.621z" fill="#fff"/><path d="M368.61 229.44v3.63l-44.28.05-.03-22.23-.01-21.07 44.27-.04z" fill="#f0a284"/><path d="M289.55 455.18a54.52 54.52 0 0051.16 54.41 5.68 5.68 0 00.59 0c.91.05 1.83.08 2.76.08h105.29a41.71 41.71 0 0041.76-41.12c.36-23.33-19.21-42.43-42.55-42.43h-159z" fill="#108fd4"/><path d="M412.15 471.12l.27 2 3.07 22.41L431.2 610l15.69 114.31 78.42-10.76-6.77-49.36-22.06-160.73-5.92-43.1a39.46 39.46 0 00-18.35-28.26 37.71 37.71 0 00-3.8-2.08 39.58 39.58 0 00-56.26 41.1z" fill="#108fd4"/><path d="M368.61 229.44a28.75 28.75 0 01-3.09.1 56.77 56.77 0 01-41.22-18.65v-21.07h44.27z" fill="#ef927f"/><path d="M395.09 134.24L395 143l-.66 41.3a34.23 34.23 0 01-34.75 33.66 56.89 56.89 0 01-56-57.78l.4-24.87a31 31 0 0131.45-30.46l31.63.51a28.48 28.48 0 0128.02 28.88z" fill="#f0a284"/><path d="M395.09 134.24L395 143a87.62 87.62 0 01-31.11 5.38c-30 0-54.35-13.38-54.55-29.92a30.89 30.89 0 0126.13-13.61l31.63.51a28.48 28.48 0 0127.99 28.88z" fill="#ef927f"/><g fill="#db8d5c"><path d="M317.93 392.5v124.7a17 17 0 01-34.06 0V392.5a16.68 16.68 0 011.2-6.25 17 17 0 0132.86 6.25z"/><path d="M346.51 516.2l-6.32 18.02-2.09 5.98-9.75 27.83-5.06 14.44-72.22 204.88-39.69 112.6h-30.7l28.3-112.6 51.48-204.88 3.88-14.44 7.47-27.83 1.61-5.98 4.84-18.02zm108.56 0l-1.03 18.02-.34 5.98-1.6 27.83-.81 14.44-14.46 204.88-7.95 112.6h-30.7l-3.44-112.6-6.28-204.88-.37-14.44-.68-27.83-.16-5.98-.44-18.02z"/><rect height="34.25" rx="14.49" width="210.64" x="257.9" y="499.97"/></g><rect fill="#f1a873" height="20.02" rx="9.51" width="155.21" x="285.62" y="507.08"/><path d="M273.42 534.22h66.77l-2.09 5.98-9.75 27.83h-64.01zm180.62 0l-.34 5.98-1.6 27.83h-64.01l-.68-27.83-.16-5.98zM317.93 392.5v28.72h-34.06V392.5a16.68 16.68 0 011.2-6.25h31.67a16.87 16.87 0 011.19 6.25zm-66.86 394.85l-39.69 112.6h-30.7l28.3-112.6zm185.76 0l-7.95 112.6h-30.7l-3.44-112.6z" fill="#cb7748"/><path d="M271 364.94h96.34a4.22 4.22 0 014.22 4.22 30.75 30.75 0 01-30.75 30.75H240.2v-4.22a30.75 30.75 0 0130.8-30.75z" fill="#db8d5c"/><path d="M371.51 364.94v4.23a30.74 30.74 0 01-30.74 30.74h-48a30.75 30.75 0 0030.75-30.74v-4.23z" fill="#e9a06d"/><path d="M574.37 545.9h141.87v38.41H574.37z" fill="#cb7748"/><path d="M752.9 901.66h-14.12l-12.36-114.31-44.3-409.97-2.52-23.36h31.38l1.79 23.36 31.38 409.97zM609.66 354.02l-2.8 23.36-49.16 409.97-13.71 114.31h-15.66l9.71-114.31 34.81-409.97 1.99-23.36z" fill="#db8d5c"/><path d="M574.84 354.02h34.82l-2.8 23.36h-34.01zm137.93 23.36h-30.65l-2.52-23.36h31.38z" fill="#cb7748"/><rect fill="#db8d5c" height="24.86" rx="9.95" width="187.36" x="551.24" y="342.38"/><path d="M538.04 787.35h19.66l-13.71 114.31h-15.66zM752.9 901.66h-14.12l-12.36-114.31h17.73z" fill="#cb7748"/><path d="M728.55 719c-1.34 0-2.51-1.53-2.72-3.66l-22.62-236c-.23-2.34.81-4.52 2.31-4.87s2.9 1.26 3.12 3.6l22.63 236c.22 2.35-.81 4.53-2.31 4.88a2 2 0 01-.41.05zm-172.21 0c1.34 0 2.51-1.53 2.72-3.66l22.62-236c.23-2.34-.81-4.52-2.31-4.87s-2.9 1.26-3.12 3.6l-22.63 236c-.22 2.35.81 4.53 2.31 4.88a2 2 0 00.41.05z" fill="#f1a873"/><path d="M606.4 329.47h4.21a4 4 0 014 4v2.34h-12.24v-2.34a4 4 0 014.03-4zm-12.26 0h4.21a4 4 0 014 4v2.34h-12.23v-2.34a4 4 0 014.02-4zm-12.25 0h4.21a4 4 0 014 4v2.34h-12.24v-2.34a4 4 0 014.03-4zm-12.26 0h4.21a4 4 0 014 4v2.34H565.6v-2.34a4 4 0 014.03-4zm-12.26 0h4.21a4 4 0 014 4v2.34h-12.23v-2.34a4 4 0 014.02-4zm-12.25 0h4.21a4 4 0 014 4v2.34h-12.24v-2.34a4 4 0 014.03-4zm-12.26 0h4.21a4 4 0 014 4v2.34h-12.24v-2.34a4 4 0 014.03-4z" fill="#dee4eb"/><rect fill="#004393" height="11.95" rx="5.98" width="167.45" x="492.54" y="330.42"/><path d="M613.86 342.37h139.72a12.78 12.78 0 0012.4-9.66l27.23-108.19a12.78 12.78 0 00-12.4-15.9H657.49a12.77 12.77 0 00-12.39 9.66z" fill="#108fd4"/><path d="M793.21 224.52L766 332.71a12.79 12.79 0 01-12.4 9.67H613.87l3-12h110.39a12.8 12.8 0 0012.41-9.67l27.22-108.19a12.66 12.66 0 00.36-3.94h13.56a12.79 12.79 0 0112.4 15.94z" fill="#004393"/><circle cx="712.28" cy="279.07" fill="#dee4eb" r="6.99"/><path d="M721.65 289.54a13.7 13.7 0 11-18.93-18.92 13.71 13.71 0 0018.93 18.92z" fill="#dee4eb"/><path d="M295.1 120.15H328v19.25a28.55 28.55 0 01-28.55 28.55 4.36 4.36 0 01-4.36-4.36v-43.44z" fill="#004393"/><ellipse cx="346.45" cy="112.28" fill="#004393" rx="54.57" ry="30.13"/><path d="M393 112.28c0 12.32-18.08 22.3-40.38 22.3-1.87 0-3.72-.07-5.53-.2 19.67-1.5 34.84-10.82 34.84-22.1S366.71 91.68 347 90.2c1.81-.14 3.66-.21 5.53-.21C374.87 90 393 100 393 112.28z" fill="#108fd4"/><ellipse cx="324.3" cy="107" fill="#108fd4" rx="25.92" ry="14.31"/><circle cx="305.91" cy="158.51" fill="#f0a284" r="14.47"/><rect fill="#dee4eb" height="163.51" rx="32.54" transform="rotate(152.47 313.186 315.03)" width="65.09" x="280.65" y="233.28"/><path d="M341 390.83a32.6 32.6 0 01-33.9-17.12l-45.48-87.27a32.54 32.54 0 0133.85-47.21 32.55 32.55 0 00-23.82 47.21l45.49 87.27A32.5 32.5 0 00341 390.83z" fill="#fff"/><circle cx="336.12" cy="357.09" fill="#004393" r="36.82"/><rect fill="#f0a284" height="157.55" rx="28.54" transform="rotate(78.65 384.402 352.36)" width="57.09" x="355.86" y="273.59"/><ellipse cx="444.18" cy="341.19" fill="#f0a284" rx="36.39" ry="29.46"/><path d="M480.56 340.77c-2.11 13-14.74 23.34-30.74 25.24a44.62 44.62 0 01-5.33.31 41.42 41.42 0 01-4.62-.24l-.29.07-10 2-88.48 17.76a28.55 28.55 0 01-33.6-22.37 28.73 28.73 0 01-.56-5.49 28.58 28.58 0 0028.21 32.74 28.78 28.78 0 005.65-.56l98.5-19.77.28-.07a44.15 44.15 0 004.63.24c20.1 0 36.39-13.19 36.39-29.45-.03-.18-.03-.27-.04-.41z" fill="#fcb798"/><g fill="#f0a284"><rect height="41.89" rx="8.18" transform="rotate(88.45 464.961 353.565)" width="16.37" x="456.78" y="332.65"/><rect height="41.89" rx="8.18" transform="rotate(88.45 478.678 337.903)" width="16.37" x="470.5" y="316.99"/><rect height="41.89" rx="8.18" transform="rotate(88.45 464.959 321.906)" width="16.37" x="456.78" y="300.99"/><rect height="41.89" rx="8.18" transform="rotate(60 436.362 316.121)" width="16.37" x="428.18" y="295.17"/></g><rect fill="#fcb798" height="61.01" rx="8.6" transform="rotate(78.65 373.253 360.575)" width="17.2" x="364.66" y="330.07"/><circle cx="352.26" cy="158.51" fill="#361647" r="3.38"/><circle cx="377.07" cy="158.51" fill="#361647" r="3.38"/><path d="M308.72 166v-12.27a2 2 0 00-2.56-1.86 8.4 8.4 0 000 16 2 2 0 002.56-1.87z" fill="#ef927f"/><circle cx="308.08" cy="159.87" fill="#fcf4e6" r="5.86"/><rect fill="#fcf4e6" height="15.64" rx="2.38" transform="rotate(-39.13 313.45 166.653)" width="4.77" x="311.07" y="158.83"/><path d="M315.86 170.27l-4.7-5.77-.4-.49a5 5 0 01-1.3.16h-.48a5.39 5.39 0 01-4.91-5.37 5.25 5.25 0 011-3.16 5.32 5.32 0 00-2.06 4.23 5.39 5.39 0 005.39 5.39 5 5 0 001.29-.16l5.11 6.26a2.18 2.18 0 003.08.32 2.13 2.13 0 00.62-.82 2.18 2.18 0 01-2.64-.59z" fill="#fff"/><path d="M372.29 173a8.63 8.63 0 01-2.55 6.11 8 8 0 01-.62.56 8.52 8.52 0 01-5.51 2h-.35a8.55 8.55 0 01-5.09-1.67 8.67 8.67 0 01-3.51-6.29v-.72a1.69 1.69 0 011.68-1.67h14.31a1.67 1.67 0 011.64 1.68z" fill="#962f4a"/><path d="M363.44 180.34a6.45 6.45 0 01-.13 1.33h-.05a8.65 8.65 0 01-8.6-8 7.12 7.12 0 011.92-.27 6.88 6.88 0 016.86 6.94z" fill="#e1617f"/><path d="M370.3 171.36c-.07 1.7-2.69 3-5.91 3s-5.83-1.37-5.9-3.07z" fill="#fff"/></svg>